# xmcd
#
# Track frame offsets:
# 150
# 19078
# 28987
# 40504
# 47686
# 58545
# 75301
# 84970
# 102116
# 118041
# 135753
# 147959
# 166221
# 180694
# 190015
# 202689
# 209655
# 216934
# 223865
# 238801
# 258954
# 294753
# 308165
# 317840
# 325132
#
# Disc length: 4494 seconds
#
#
# Revision: 0
# Processed by: cddbd v1.5.1PL2 Copyright (c) Steve Scherf et al.
# Submitted via: FreeRIP 2.945 
#
DISCID=57118c19
DTITLE=Jerry Clower - Classic Clower Power [CD 2)
DYEAR=2006
DGENRE=Comedy
TTITLE0=I Love Small Towns
TTITLE1=Apple Pie And Coffee
TTITLE2=Examples Of A Red Neck
TTITLE3=I'm That Country
TTITLE4=The Headless Man
TTITLE5=Knock Him Out John
TTITLE6=Mr. Jake Ledbetter
TTITLE7=Marcel's Talkin' Chain Saw
TTITLE8=Who's The Boss
TTITLE9=The Hot Hotel
TTITLE10=You're On My List
TTITLE11=Feudin' Stars
TTITLE12=Clovis Gets A Job
TTITLE13=Deep Water Baptists
TTITLE14=Physical Examination
TTITLE15=If I Was President
TTITLE16=The Trucker And The Lady
TTITLE17=Marcel The Truck Driver
TTITLE18=The Last Day Of School
TTITLE19=Steel Marbles
TTITLE20=The Graduate Returns
TTITLE21=Uncle Versie's Bond
TTITLE22=Coon Huntin' On TV
TTITLE23=Wooden Leg
TTITLE24=You're Fixin' To Mess Up
EXTD=MCA Nashville
EXTT0=
EXTT1=
EXTT2=
EXTT3=
EXTT4=
EXTT5=
EXTT6=
EXTT7=
EXTT8=
EXTT9=
EXTT10=
EXTT11=
EXTT12=
EXTT13=
EXTT14=
EXTT15=
EXTT16=
EXTT17=
EXTT18=
EXTT19=
EXTT20=
EXTT21=
EXTT22=
EXTT23=
EXTT24=
PLAYORDER=
